<svg width="751" height="272" viewBox="0 0 751 272" fill="none" xmlns="http://www.w3.org/2000/svg">
<path d="M78.3695 151.701C69.3883 142.719 57.6519 137.689 49.155 127.921C39.1972 116.475 34.4841 101.578 35.9066 86.4777C40.3028 39.8104 95.8931 12.1525 136.119 3.76008C143.103 2.30299 160.217 -1.33875 162.106 9.36517C164.899 25.1931 152.413 41.8934 144.611 54.3758C123.545 88.0816 97.401 117.365 68.0085 144.057C52.6287 158.024 31.3612 179.302 10.2591 184.652C1.61483 186.843 2.00237 175.723 1.93634 170.045C1.81189 159.342 2.1041 150.575 11.1083 143.208C24.6413 132.136 43.8106 128.415 60.7049 127.582C74.7277 126.89 94.5552 124.015 105.885 134.715C110.996 139.542 115.672 148.852 121.512 152.55C126.472 155.691 138.371 152.648 143.253 151.021C157.627 146.23 171.883 139.459 181.979 127.921C184.119 125.476 191.957 116.379 188.433 112.635C184.757 108.729 180.285 117.912 179.601 119.938C176.111 130.28 173.817 146.567 177.223 157.136C186.464 185.815 229.165 158.439 242.786 151.361C254.707 145.166 262.365 134.292 273.699 127.582C280.183 123.742 283.24 121.205 279.813 130.299C276.663 138.66 271.619 149.596 264.696 155.437C258.097 161.005 277.077 143.198 284.399 138.622C287.02 136.984 304.018 125.385 304.612 133.696C305.228 142.325 304.612 151.21 304.612 159.854C304.612 167.41 304.742 168.754 312.595 168.516C326.42 168.097 339.363 162.338 350.471 154.418C357.152 149.655 368.286 139.781 376.628 138.113C380.166 137.405 374.861 156.058 374.251 157.476C373.515 159.184 365.926 171.506 369.834 166.987C377.018 158.682 389.735 152.133 400.238 149.323C417.127 144.803 403.742 163.324 407.372 172.762C409.624 178.618 449.771 154.293 455.27 151.701C468.424 145.499 449.02 172.376 464.272 171.573C478.716 170.813 495.667 158.324 507.924 151.701C532.721 138.3 556.998 125.009 577.053 104.822C585.307 96.5138 592.517 87.4055 598.454 77.3057C600.347 74.0865 608.782 62.4272 606.607 57.9427C602.127 48.7025 569.928 89.1656 569.07 90.2144C539.678 126.139 503.134 162.365 484.824 205.544C479.287 218.601 462.79 263.228 487.541 268.728C512.342 274.24 537.172 255.48 555.992 242.571C576.307 228.636 591.144 209.203 594.718 184.312C596.708 170.446 598.129 154.476 586.225 144.737C582.586 141.759 579.277 141.93 576.374 145.586C569.174 154.652 573.914 161.39 585.546 160.873C601.162 160.179 621.121 143.531 615.779 126.563C614.408 122.207 612.494 117.522 607.287 118.07C602.54 118.57 603.338 132.37 603.38 135.055C603.914 169.236 636.73 173.233 663.847 162.911C672.971 159.438 693.231 148.473 686.437 134.885C685.986 133.983 689.819 142.553 693.231 145.246C701.426 151.715 711.682 152.623 720.578 157.476C721.162 157.794 717.995 159.172 717.69 159.344C713.896 161.478 709.63 162.538 705.8 164.609C698.644 168.479 692.439 177.773 697.817 185.841C705.076 196.729 740.001 193.114 749.452 188.389" stroke="black" stroke-width="3" stroke-linecap="round"/>
</svg>
