<svg width="237" height="51" viewBox="0 0 237 51" fill="none" xmlns="http://www.w3.org/2000/svg">
<path d="M3.78125 39.7617C3.78125 38.4023 4.00391 37.1367 4.44922 35.9648C4.91797 34.793 5.49219 33.668 6.17188 32.5898C6.875 31.5117 7.61328 30.4453 8.38672 29.3906C9.18359 28.3359 9.89844 27.2695 10.5312 26.1914H10.3906C9.85156 26.1914 9.32422 26.2266 8.80859 26.2969C8.29297 26.3672 7.76562 26.4023 7.22656 26.4023C6.125 26.4023 5.14062 26.0039 4.27344 25.207C3.40625 24.4102 2.66797 23.4141 2.05859 22.2188C1.47266 21 1.01562 19.6992 0.6875 18.3164C0.359375 16.9336 0.195312 15.668 0.195312 14.5195C0.289062 13.8164 0.394531 13.0781 0.511719 12.3047C0.652344 11.5078 0.828125 10.7344 1.03906 9.98438C1.25 9.23438 1.50781 8.51953 1.8125 7.83984C2.14062 7.13672 2.53906 6.51562 3.00781 5.97656C3.47656 5.4375 4.03906 5.01562 4.69531 4.71094C5.35156 4.38281 6.13672 4.20703 7.05078 4.18359C7.49609 4.18359 7.90625 4.30078 8.28125 4.53516C8.65625 4.76953 8.97266 5.07422 9.23047 5.44922C9.51172 5.80078 9.73438 6.19922 9.89844 6.64453C10.0859 7.08984 10.2148 7.53516 10.2852 7.98047L11.4805 20.707C11.7148 20.5664 11.9961 20.5078 12.3242 20.5312C12.6758 20.5312 12.9453 20.5312 13.1328 20.5312H14.2578C14.4219 20.6953 14.5508 20.7891 14.6445 20.8125C14.7383 20.8359 14.8672 20.8477 15.0312 20.8477H15.2773C15.4648 20.7305 15.6758 20.5898 15.9102 20.4258C16.168 20.2617 16.4023 20.1328 16.6133 20.0391C16.8477 19.9219 17.0352 19.875 17.1758 19.8984C17.3164 19.8984 17.3633 20.0039 17.3164 20.2148C17.293 20.4258 17.1523 20.7656 16.8945 21.2344C16.6367 21.6797 16.2031 22.3008 15.5938 23.0977C15.4531 23.4258 15.2305 23.7188 14.9258 23.9766C14.6211 24.2344 14.3164 24.5039 14.0117 24.7852C13.707 25.0664 13.4375 25.3594 13.2031 25.6641C12.9688 25.9453 12.8516 26.2617 12.8516 26.6133C12.8516 26.6602 12.8516 26.7422 12.8516 26.8594C12.875 26.9531 12.8867 27.0117 12.8867 27.0352L14.2578 33.8906C14.2578 33.8906 14.2578 34.0195 14.2578 34.2773C14.2812 34.5352 14.293 34.8398 14.293 35.1914C14.3164 35.543 14.3398 35.8945 14.3633 36.2461C14.3867 36.6211 14.3984 36.9258 14.3984 37.1602V37.3359C14.3984 38.1562 14.2812 39.0469 14.0469 40.0078C13.8125 40.9922 13.4609 41.9062 12.9922 42.75C12.5234 43.5938 11.9258 44.2969 11.1992 44.8594C10.4727 45.4453 9.61719 45.7383 8.63281 45.7383C7.83594 45.7383 7.13281 45.5508 6.52344 45.1758C5.9375 44.8008 5.43359 44.3203 5.01172 43.7344C4.61328 43.1719 4.30859 42.5391 4.09766 41.8359C3.88672 41.1328 3.78125 40.4414 3.78125 39.7617ZM5.50391 39.9727C5.50391 40.3711 5.57422 40.8047 5.71484 41.2734C5.85547 41.7422 6.05469 42.1758 6.3125 42.5742C6.59375 42.9961 6.91016 43.3359 7.26172 43.5938C7.63672 43.875 8.05859 44.0156 8.52734 44.0156C9.34766 44.0156 10.0039 43.7461 10.4961 43.207C10.9883 42.6914 11.375 42.0586 11.6562 41.3086C11.9609 40.582 12.1602 39.8086 12.2539 38.9883C12.3477 38.1914 12.3945 37.5234 12.3945 36.9844C12.3945 36.1875 12.3594 35.4375 12.2891 34.7344C12.2422 34.0547 12.1719 33.375 12.0781 32.6953C11.9844 32.0156 11.8555 31.3359 11.6914 30.6562C11.5508 29.9766 11.375 29.2383 11.1641 28.4414L11.0234 28.582C10.9531 28.6523 10.8008 28.8516 10.5664 29.1797C10.332 29.5078 10.0625 29.8828 9.75781 30.3047C9.45312 30.7266 9.16016 31.1484 8.87891 31.5703C8.59766 31.9922 8.39844 32.3203 8.28125 32.5547C7.92969 33.1172 7.58984 33.6914 7.26172 34.2773C6.93359 34.8633 6.64062 35.4609 6.38281 36.0703C6.125 36.7031 5.91406 37.3359 5.75 37.9688C5.58594 38.625 5.50391 39.293 5.50391 39.9727ZM2.05859 14.0977C2.05859 15.1523 2.14062 16.3008 2.30469 17.543C2.49219 18.7617 2.78516 19.8984 3.18359 20.9531C3.58203 22.0078 4.12109 22.8867 4.80078 23.5898C5.48047 24.293 6.34766 24.6445 7.40234 24.6445C7.51953 24.6445 7.71875 24.6562 8 24.6797C8.30469 24.7031 8.60938 24.7031 8.91406 24.6797C9.24219 24.6562 9.53516 24.6094 9.79297 24.5391C10.0508 24.4453 10.1797 24.293 10.1797 24.082C10.1797 24.0586 10.168 24.0469 10.1445 24.0469C10.1445 24.0234 10.1445 23.9883 10.1445 23.9414V23.8008L8.42188 8.33203C8.375 8.07422 8.29297 7.81641 8.17578 7.55859C8.05859 7.30078 7.91797 7.06641 7.75391 6.85547C7.58984 6.62109 7.39062 6.43359 7.15625 6.29297C6.94531 6.12891 6.71094 6.04688 6.45312 6.04688C5.58594 6.04688 4.87109 6.35156 4.30859 6.96094C3.74609 7.57031 3.28906 8.29688 2.9375 9.14062C2.60938 9.98438 2.375 10.875 2.23438 11.8125C2.11719 12.7266 2.05859 13.4883 2.05859 14.0977ZM11.6562 21.7266C11.6562 21.75 11.6562 21.7734 11.6562 21.7969C11.6797 21.8203 11.6914 21.8555 11.6914 21.9023C11.6914 21.9727 11.7031 22.0898 11.7266 22.2539C11.7734 22.3945 11.8086 22.5586 11.832 22.7461C11.8789 22.9336 11.9258 23.1094 11.9727 23.2734C12.0195 23.4141 12.043 23.5195 12.043 23.5898C12.0664 23.5898 12.0898 23.6016 12.1133 23.625C12.1602 23.6484 12.1953 23.6602 12.2188 23.6602C12.3125 23.6602 12.4297 23.6133 12.5703 23.5195C12.7344 23.4258 12.8984 23.3203 13.0625 23.2031C13.2266 23.0625 13.3555 22.9219 13.4492 22.7812C13.5664 22.6172 13.625 22.4766 13.625 22.3594C13.625 22.2656 13.6133 22.1719 13.5898 22.0781C13.5898 21.9844 13.5312 21.9258 13.4141 21.9023C13.3672 21.8789 13.2617 21.8555 13.0977 21.832C12.957 21.8086 12.8047 21.7969 12.6406 21.7969C12.5 21.7969 12.3477 21.7852 12.1836 21.7617C12.043 21.7383 11.9375 21.7266 11.8672 21.7266H11.6562ZM16.2266 21.5156C16.2734 21.375 16.3438 21.1289 16.4375 20.7773C16.5547 20.4023 16.6602 20.0039 16.7539 19.582C16.8711 19.1602 16.9648 18.7617 17.0352 18.3867C17.1289 17.9883 17.1992 17.7188 17.2461 17.5781C17.3867 17.0156 17.5508 16.4062 17.7383 15.75C17.9492 15.0938 18.2305 14.4844 18.582 13.9219C18.9336 13.3594 19.3789 12.9023 19.918 12.5508C20.4805 12.1758 21.1719 11.9883 21.9922 11.9883C22.2969 11.9883 22.5078 12.1055 22.625 12.3398C22.7656 12.5508 22.8828 12.7852 22.9766 13.043C22.9766 13.1367 22.9766 13.3125 22.9766 13.5703C23 13.8047 23.0117 13.9688 23.0117 14.0625C23.0117 15.0703 22.9062 15.9609 22.6953 16.7344C22.5078 17.5078 22.2031 18.2227 21.7812 18.8789C21.3828 19.5352 20.8906 20.1562 20.3047 20.7422C19.7188 21.3047 19.0508 21.9023 18.3008 22.5352C18.2773 22.6055 18.2422 22.7227 18.1953 22.8867C18.1484 23.0508 18.125 23.168 18.125 23.2383V23.3086C18.125 23.7305 18.1953 24.0703 18.3359 24.3281C18.4766 24.5859 18.6641 24.7969 18.8984 24.9609C19.1562 25.1016 19.4375 25.1953 19.7422 25.2422C20.0703 25.2656 20.4219 25.2773 20.7969 25.2773C21.8984 25.2773 22.9531 25.125 23.9609 24.8203C24.9688 24.5156 25.8945 24.0234 26.7383 23.3438C26.8555 23.2266 26.9961 23.0625 27.1602 22.8516C27.3477 22.6172 27.5352 22.3828 27.7227 22.1484C27.9102 21.9141 28.1094 21.7148 28.3203 21.5508C28.5312 21.3633 28.7539 21.2695 28.9883 21.2695C29.2227 21.2695 29.3633 21.3633 29.4102 21.5508C29.457 21.7383 29.4805 21.9258 29.4805 22.1133C29.4805 22.6289 29.3164 23.1211 28.9883 23.5898C28.6836 24.0352 28.2734 24.4453 27.7578 24.8203C27.2656 25.1719 26.6914 25.4883 26.0352 25.7695C25.4023 26.0508 24.7695 26.2852 24.1367 26.4727C23.5039 26.6602 22.8945 26.8008 22.3086 26.8945C21.7461 26.9883 21.2656 27.0352 20.8672 27.0352C19.625 27.0352 18.582 26.8359 17.7383 26.4375C16.918 26.0156 16.3555 25.1836 16.0508 23.9414L16.2266 21.5156ZM21.2539 14.5898C20.7852 15.0117 20.4102 15.3984 20.1289 15.75C19.8711 16.0781 19.6602 16.4297 19.4961 16.8047C19.3555 17.1562 19.2266 17.543 19.1094 17.9648C19.0156 18.3867 18.9102 18.8789 18.793 19.4414C19.2383 19.0898 19.6016 18.7383 19.8828 18.3867C20.1875 18.0352 20.4336 17.6719 20.6211 17.2969C20.8086 16.9219 20.9492 16.5234 21.043 16.1016C21.1367 15.6562 21.207 15.1523 21.2539 14.5898ZM28.9883 26.2969L30.1836 19.2656V18.2812L30.8867 13.6055C30.957 13.5117 31.0859 13.4648 31.2734 13.4648C31.4609 13.4414 31.5898 13.4297 31.6602 13.4297C31.8477 13.4297 32.0586 13.5 32.293 13.6406C32.5508 13.7578 32.6797 13.9219 32.6797 14.1328V16.5234C32.7734 16.4531 32.9375 16.3125 33.1719 16.1016C33.4062 15.8906 33.6523 15.668 33.9102 15.4336C34.1914 15.1992 34.4492 14.9766 34.6836 14.7656C34.918 14.5547 35.0703 14.4023 35.1406 14.3086C35.3984 14.0742 35.7031 13.875 36.0547 13.7109C36.4297 13.5469 36.7812 13.4648 37.1094 13.4648C37.7891 13.4648 38.3164 13.6758 38.6914 14.0977C39.0898 14.5195 39.2891 15.0586 39.2891 15.7148C39.2891 15.7617 39.2773 15.7969 39.2539 15.8203C39.2539 15.8203 39.2539 15.8438 39.2539 15.8906V16.0312L37.918 22.043V24.8906C38.6445 24.8906 39.3945 24.75 40.168 24.4688C40.9648 24.1641 41.7266 23.7891 42.4531 23.3438C43.1797 22.8984 43.8594 22.3945 44.4922 21.832C45.125 21.2461 45.6758 20.6836 46.1445 20.1445H46.2852C46.4492 20.1445 46.5781 20.2031 46.6719 20.3203C46.7891 20.4141 46.8477 20.543 46.8477 20.707C46.8477 21.2227 46.6719 21.7383 46.3203 22.2539C45.9922 22.7461 45.5586 23.2148 45.0195 23.6602C44.5039 24.1055 43.8945 24.5273 43.1914 24.9258C42.5117 25.3242 41.832 25.6641 41.1523 25.9453C40.4961 26.2266 39.8516 26.4492 39.2188 26.6133C38.5859 26.7773 38.0469 26.8594 37.6016 26.8594C37.1562 26.8594 36.8047 26.7773 36.5469 26.6133C36.2891 26.4492 36.0898 26.2383 35.9492 25.9805C35.832 25.6992 35.75 25.3945 35.7031 25.0664C35.6797 24.7383 35.668 24.3867 35.668 24.0117V23.5547L37.0391 16.7344V15.5742C36.4766 15.5742 35.9141 15.8203 35.3516 16.3125C34.8125 16.8047 34.3203 17.4023 33.875 18.1055C33.4531 18.8086 33.0781 19.5234 32.75 20.25C32.4453 20.9766 32.2227 21.5742 32.082 22.043C32.0352 22.207 31.9648 22.5 31.8711 22.9219C31.7773 23.3438 31.6836 23.7891 31.5898 24.2578C31.5195 24.7266 31.4492 25.1719 31.3789 25.5938C31.3086 26.0156 31.2617 26.3203 31.2383 26.5078C31.2617 26.6484 31.2148 26.7539 31.0977 26.8242C31.0039 26.8945 30.8867 26.9531 30.7461 27C30.6055 27.0234 30.4531 27.0352 30.2891 27.0352C30.1484 27.0352 30.0312 27.0352 29.9375 27.0352C29.7266 27.0352 29.5156 27 29.3047 26.9297C29.0938 26.8594 28.9883 26.6836 28.9883 26.4023V26.2969ZM45.1953 26.2969L46.3906 19.2656V18.2812L47.0938 13.6055C47.1641 13.5117 47.293 13.4648 47.4805 13.4648C47.668 13.4414 47.7969 13.4297 47.8672 13.4297C48.0547 13.4297 48.2656 13.5 48.5 13.6406C48.7578 13.7578 48.8867 13.9219 48.8867 14.1328V16.5234C48.9805 16.4531 49.1445 16.3125 49.3789 16.1016C49.6133 15.8906 49.8594 15.668 50.1172 15.4336C50.3984 15.1992 50.6562 14.9766 50.8906 14.7656C51.125 14.5547 51.2773 14.4023 51.3477 14.3086C51.6055 14.0742 51.9102 13.875 52.2617 13.7109C52.6367 13.5469 52.9883 13.4648 53.3164 13.4648C53.9961 13.4648 54.5234 13.6758 54.8984 14.0977C55.2969 14.5195 55.4961 15.0586 55.4961 15.7148C55.4961 15.7617 55.4844 15.7969 55.4609 15.8203C55.4609 15.8203 55.4609 15.8438 55.4609 15.8906V16.0312L54.125 22.043V24.8906C54.8516 24.8906 55.6016 24.75 56.375 24.4688C57.1719 24.1641 57.9336 23.7891 58.6602 23.3438C59.3867 22.8984 60.0664 22.3945 60.6992 21.832C61.332 21.2461 61.8828 20.6836 62.3516 20.1445H62.4922C62.6562 20.1445 62.7852 20.2031 62.8789 20.3203C62.9961 20.4141 63.0547 20.543 63.0547 20.707C63.0547 21.2227 62.8789 21.7383 62.5273 22.2539C62.1992 22.7461 61.7656 23.2148 61.2266 23.6602C60.7109 24.1055 60.1016 24.5273 59.3984 24.9258C58.7188 25.3242 58.0391 25.6641 57.3594 25.9453C56.7031 26.2266 56.0586 26.4492 55.4258 26.6133C54.793 26.7773 54.2539 26.8594 53.8086 26.8594C53.3633 26.8594 53.0117 26.7773 52.7539 26.6133C52.4961 26.4492 52.2969 26.2383 52.1562 25.9805C52.0391 25.6992 51.957 25.3945 51.9102 25.0664C51.8867 24.7383 51.875 24.3867 51.875 24.0117V23.5547L53.2461 16.7344V15.5742C52.6836 15.5742 52.1211 15.8203 51.5586 16.3125C51.0195 16.8047 50.5273 17.4023 50.082 18.1055C49.6602 18.8086 49.2852 19.5234 48.957 20.25C48.6523 20.9766 48.4297 21.5742 48.2891 22.043C48.2422 22.207 48.1719 22.5 48.0781 22.9219C47.9844 23.3438 47.8906 23.7891 47.7969 24.2578C47.7266 24.7266 47.6562 25.1719 47.5859 25.5938C47.5156 26.0156 47.4688 26.3203 47.4453 26.5078C47.4688 26.6484 47.4219 26.7539 47.3047 26.8242C47.2109 26.8945 47.0938 26.9531 46.9531 27C46.8125 27.0234 46.6602 27.0352 46.4961 27.0352C46.3555 27.0352 46.2383 27.0352 46.1445 27.0352C45.9336 27.0352 45.7227 27 45.5117 26.9297C45.3008 26.8594 45.1953 26.6836 45.1953 26.4023V26.2969ZM61.8594 19.6172C61.8828 19.5 61.9531 19.2891 62.0703 18.9844C62.1875 18.6797 62.3047 18.3516 62.4219 18C62.5625 17.6484 62.6914 17.3203 62.8086 17.0156C62.9258 16.7109 63.0078 16.5 63.0547 16.3828C63.1953 16.0078 63.3242 15.7617 63.4414 15.6445C63.582 15.5273 63.8281 15.4688 64.1797 15.4688C64.5547 15.4688 64.8008 15.5977 64.918 15.8555C65.0352 16.1133 65.0938 16.418 65.0938 16.7695C65.0938 17.3789 65 17.9414 64.8125 18.457C64.6484 18.9492 64.4609 19.4531 64.25 19.9688C64.0391 20.4609 63.8398 21 63.6523 21.5859C63.4883 22.1484 63.4062 22.8047 63.4062 23.5547C63.4062 23.6484 63.4062 23.7891 63.4062 23.9766C63.4062 24.1406 63.418 24.3164 63.4414 24.5039C63.4648 24.668 63.5117 24.8203 63.582 24.9609C63.6523 25.0781 63.7461 25.1367 63.8633 25.1367C64.4727 25.1367 65.082 25.0195 65.6914 24.7852C66.3242 24.5273 66.9336 24.2344 67.5195 23.9062C68.1289 23.5547 68.7031 23.1797 69.2422 22.7812C69.8047 22.3594 70.3086 21.9961 70.7539 21.6914C70.918 21.5742 71.0352 21.457 71.1055 21.3398C71.1992 21.2227 71.2812 21.1172 71.3516 21.0234C71.4219 20.9062 71.5039 20.8125 71.5977 20.7422C71.7148 20.6484 71.8906 20.6016 72.125 20.6016C72.4297 20.6016 72.6758 20.6719 72.8633 20.8125C73.0742 20.9297 73.1797 21.1523 73.1797 21.4805C73.1797 21.6211 73.168 21.75 73.1445 21.8672C73.1445 21.9844 73.0859 22.0898 72.9688 22.1836C72.9453 22.2539 72.8516 22.3477 72.6875 22.4648C72.5469 22.582 72.3945 22.7109 72.2305 22.8516C72.0664 22.9688 71.9141 23.0859 71.7734 23.2031C71.6328 23.2969 71.5273 23.3555 71.457 23.3789C71.4336 23.3789 71.3633 23.4141 71.2461 23.4844C71.1523 23.5312 71.0938 23.5547 71.0703 23.5547C71.0469 23.5781 71.0117 23.6133 70.9648 23.6602C70.9414 23.6836 70.9297 23.707 70.9297 23.7305C70.4375 24.1055 69.8984 24.4922 69.3125 24.8906C68.75 25.2656 68.1523 25.6172 67.5195 25.9453C66.8867 26.25 66.2305 26.5078 65.5508 26.7188C64.8945 26.9297 64.2383 27.0352 63.582 27.0352C63.0195 27.0352 62.5859 26.8945 62.2812 26.6133C62 26.3086 61.7891 25.9336 61.6484 25.4883C61.5078 25.043 61.4258 24.5742 61.4023 24.082C61.3789 23.5898 61.3672 23.1445 61.3672 22.7461L61.8594 19.6172ZM63.5469 10.3711C63.5469 9.94922 63.6289 9.66797 63.793 9.52734C63.957 9.38672 64.25 9.31641 64.6719 9.31641C64.8828 9.31641 65.0938 9.36328 65.3047 9.45703C65.5156 9.52734 65.6211 9.71484 65.6211 10.0195C65.6211 10.3242 65.4688 10.6055 65.1641 10.8633C64.8828 11.1211 64.6016 11.25 64.3203 11.25C64.0391 11.25 63.8398 11.168 63.7227 11.0039C63.6055 10.8164 63.5469 10.6055 63.5469 10.3711ZM73.1797 38.3203C73.1797 38.25 73.1797 38.1328 73.1797 37.9688C73.1797 37.8281 73.1797 37.6758 73.1797 37.5117C73.1797 37.3711 73.1797 37.2422 73.1797 37.125C73.1797 37.0312 73.1797 36.9727 73.1797 36.9492L74.4102 25.9453C74.5742 25.0781 74.7148 24.3984 74.832 23.9062C74.9492 23.3906 75.043 23.0039 75.1133 22.7461C75.207 22.4648 75.3008 22.2773 75.3945 22.1836L77.9609 13.957C78.0547 13.6758 78.2305 13.2773 78.4883 12.7617C78.7461 12.2227 79.0391 11.6953 79.3672 11.1797C79.7188 10.6641 80.0938 10.2305 80.4922 9.87891C80.8906 9.50391 81.2891 9.31641 81.6875 9.31641C81.8516 9.31641 81.9922 9.375 82.1094 9.49219C82.2266 9.60938 82.3203 9.75 82.3906 9.91406C82.4844 10.0781 82.543 10.2539 82.5664 10.4414C82.6133 10.6289 82.6367 10.7812 82.6367 10.8984C82.6367 11.9766 82.4844 13.0781 82.1797 14.2031C81.8984 15.3281 81.5234 16.4414 81.0547 17.543C80.5859 18.6211 80.0234 19.6523 79.3672 20.6367C78.7109 21.6211 78.0195 22.4883 77.293 23.2383L76.7656 25.1367C79.4141 25.0898 81.9805 24.6562 84.4648 23.8359C86.9727 23.0156 89.375 22.0078 91.6719 20.8125H91.8477C92.0586 20.8125 92.1992 20.8945 92.2695 21.0586C92.3633 21.1992 92.4102 21.3516 92.4102 21.5156C92.4102 21.7031 92.375 21.8672 92.3047 22.0078C92.2344 22.1484 92.082 22.2773 91.8477 22.3945C89.9961 23.543 88.0156 24.4805 85.9062 25.207C83.7969 25.9336 81.6641 26.4844 79.5078 26.8594C79.9297 27.3281 80.2812 27.7148 80.5625 28.0195C80.8438 28.3242 81.0664 28.6289 81.2305 28.9336C81.418 29.2617 81.5469 29.6367 81.6172 30.0586C81.7109 30.4805 81.7578 31.0547 81.7578 31.7812C81.7578 33.6094 81.3242 35.2031 80.457 36.5625C79.6133 37.9453 78.5 39.2227 77.1172 40.3945C76.7891 40.6523 76.3789 40.9219 75.8867 41.2031C75.418 41.4844 74.9609 41.625 74.5156 41.625C74.1172 41.625 73.8242 41.4961 73.6367 41.2383C73.4492 40.9805 73.3203 40.6758 73.25 40.3242C73.1797 39.9961 73.1562 39.6445 73.1797 39.2695C73.1797 38.8945 73.1797 38.5781 73.1797 38.3203ZM76.0625 28.3711C75.9688 29.0977 75.8633 29.918 75.7461 30.832C75.6289 31.7461 75.5234 32.6836 75.4297 33.6445C75.3359 34.6055 75.2539 35.5664 75.1836 36.5273C75.1133 37.4883 75.0781 38.3906 75.0781 39.2344C75.7109 39.2344 76.3203 38.9531 76.9062 38.3906C77.5156 37.8516 78.0547 37.1836 78.5234 36.3867C78.9922 35.6133 79.3789 34.8164 79.6836 33.9961C79.9883 33.1758 80.1523 32.4961 80.1758 31.957C80.2227 31.3008 80.1758 30.7383 80.0352 30.2695C79.918 29.8242 79.7188 29.4375 79.4375 29.1094C79.1562 28.8047 78.793 28.5469 78.3477 28.3359C77.9023 28.125 77.375 27.9141 76.7656 27.7031H76.5898C76.4258 27.7031 76.3086 27.7734 76.2383 27.9141C76.168 28.0547 76.1094 28.207 76.0625 28.3711ZM80.3867 13.2891C80.3633 13.2891 80.3164 13.3828 80.2461 13.5703C80.1758 13.7344 80.082 13.9219 79.9648 14.1328C79.8711 14.3438 79.7773 14.5664 79.6836 14.8008C79.6133 15.0352 79.5547 15.2109 79.5078 15.3281C79.4375 15.5156 79.3555 15.7617 79.2617 16.0664C79.168 16.3477 79.0742 16.6406 78.9805 16.9453C78.9102 17.2266 78.8398 17.4844 78.7695 17.7188C78.6992 17.9297 78.6641 18.0469 78.6641 18.0703V18.2812C79.1094 17.4844 79.5195 16.6523 79.8945 15.7852C80.2695 14.8945 80.4805 14.0039 80.5273 13.1133L80.3867 13.2891ZM91.7422 21.5156C91.7891 21.375 91.8594 21.1289 91.9531 20.7773C92.0703 20.4023 92.1758 20.0039 92.2695 19.582C92.3867 19.1602 92.4805 18.7617 92.5508 18.3867C92.6445 17.9883 92.7148 17.7188 92.7617 17.5781C92.9023 17.0156 93.0664 16.4062 93.2539 15.75C93.4648 15.0938 93.7461 14.4844 94.0977 13.9219C94.4492 13.3594 94.8945 12.9023 95.4336 12.5508C95.9961 12.1758 96.6875 11.9883 97.5078 11.9883C97.8125 11.9883 98.0234 12.1055 98.1406 12.3398C98.2812 12.5508 98.3984 12.7852 98.4922 13.043C98.4922 13.1367 98.4922 13.3125 98.4922 13.5703C98.5156 13.8047 98.5273 13.9688 98.5273 14.0625C98.5273 15.0703 98.4219 15.9609 98.2109 16.7344C98.0234 17.5078 97.7188 18.2227 97.2969 18.8789C96.8984 19.5352 96.4062 20.1562 95.8203 20.7422C95.2344 21.3047 94.5664 21.9023 93.8164 22.5352C93.793 22.6055 93.7578 22.7227 93.7109 22.8867C93.6641 23.0508 93.6406 23.168 93.6406 23.2383V23.3086C93.6406 23.7305 93.7109 24.0703 93.8516 24.3281C93.9922 24.5859 94.1797 24.7969 94.4141 24.9609C94.6719 25.1016 94.9531 25.1953 95.2578 25.2422C95.5859 25.2656 95.9375 25.2773 96.3125 25.2773C97.4141 25.2773 98.4688 25.125 99.4766 24.8203C100.484 24.5156 101.41 24.0234 102.254 23.3438C102.371 23.2266 102.512 23.0625 102.676 22.8516C102.863 22.6172 103.051 22.3828 103.238 22.1484C103.426 21.9141 103.625 21.7148 103.836 21.5508C104.047 21.3633 104.27 21.2695 104.504 21.2695C104.738 21.2695 104.879 21.3633 104.926 21.5508C104.973 21.7383 104.996 21.9258 104.996 22.1133C104.996 22.6289 104.832 23.1211 104.504 23.5898C104.199 24.0352 103.789 24.4453 103.273 24.8203C102.781 25.1719 102.207 25.4883 101.551 25.7695C100.918 26.0508 100.285 26.2852 99.6523 26.4727C99.0195 26.6602 98.4102 26.8008 97.8242 26.8945C97.2617 26.9883 96.7812 27.0352 96.3828 27.0352C95.1406 27.0352 94.0977 26.8359 93.2539 26.4375C92.4336 26.0156 91.8711 25.1836 91.5664 23.9414L91.7422 21.5156ZM96.7695 14.5898C96.3008 15.0117 95.9258 15.3984 95.6445 15.75C95.3867 16.0781 95.1758 16.4297 95.0117 16.8047C94.8711 17.1562 94.7422 17.543 94.625 17.9648C94.5312 18.3867 94.4258 18.8789 94.3086 19.4414C94.7539 19.0898 95.1172 18.7383 95.3984 18.3867C95.7031 18.0352 95.9492 17.6719 96.1367 17.2969C96.3242 16.9219 96.4648 16.5234 96.5586 16.1016C96.6523 15.6562 96.7227 15.1523 96.7695 14.5898ZM103.414 22.8164C104.07 22.3242 104.551 21.8438 104.855 21.375C105.184 20.9062 105.441 20.4375 105.629 19.9688C105.816 19.5 105.969 19.0078 106.086 18.4922C106.203 17.9531 106.391 17.3672 106.648 16.7344C106.555 16.5703 106.496 16.4297 106.473 16.3125C106.473 16.1719 106.473 16.0078 106.473 15.8203C106.473 15.6328 106.496 15.4102 106.543 15.1523C106.613 14.8945 106.707 14.6602 106.824 14.4492C106.941 14.2148 107.082 14.0156 107.246 13.8516C107.41 13.6875 107.609 13.6055 107.844 13.6055C107.82 13.6992 107.949 13.8047 108.23 13.9219C108.535 14.0391 108.898 14.168 109.32 14.3086C109.766 14.4492 110.234 14.6016 110.727 14.7656C111.219 14.9297 111.652 15.1055 112.027 15.293C112.449 15.5273 112.742 15.7852 112.906 16.0664C113.094 16.3242 113.188 16.6992 113.188 17.1914C113.188 17.6367 113.129 18.1406 113.012 18.7031C112.918 19.2656 112.812 19.8398 112.695 20.4258C112.602 20.9883 112.496 21.5625 112.379 22.1484C112.285 22.7109 112.238 23.2266 112.238 23.6953V24.6094C112.215 24.8203 112.262 24.9375 112.379 24.9609C112.52 24.9609 112.648 24.9609 112.766 24.9609C113.047 24.9609 113.305 24.9141 113.539 24.8203C113.773 24.7266 114.008 24.6211 114.242 24.5039C114.5 24.3867 114.746 24.2812 114.98 24.1875C115.215 24.0703 115.461 23.9883 115.719 23.9414L118.812 22.043C118.906 21.8789 119.023 21.75 119.164 21.6562C119.328 21.5391 119.48 21.4336 119.621 21.3398C119.855 21.1992 120.137 21 120.465 20.7422C120.629 20.6016 120.805 20.4609 120.992 20.3203H122.047C122.117 20.3203 122.164 20.3906 122.188 20.5312C122.211 20.6719 122.223 20.7773 122.223 20.8477C122.223 21.1289 122.023 21.4805 121.625 21.9023C121.227 22.3242 120.711 22.7578 120.078 23.2031C119.445 23.6484 118.742 24.0938 117.969 24.5391C117.195 24.9609 116.434 25.3477 115.684 25.6992C114.957 26.0508 114.277 26.332 113.645 26.543C113.035 26.7539 112.566 26.8594 112.238 26.8594C111.816 26.8594 111.477 26.7539 111.219 26.543C110.961 26.332 110.75 26.0742 110.586 25.7695C110.422 25.4648 110.305 25.1367 110.234 24.7852C110.188 24.4102 110.164 24.0469 110.164 23.6953C110.164 23.4375 110.246 23.0742 110.41 22.6055C110.574 22.1367 110.762 21.6562 110.973 21.1641C111.184 20.6719 111.371 20.1914 111.535 19.7227C111.699 19.2539 111.781 18.8789 111.781 18.5977C111.781 18.5742 111.605 18.4805 111.254 18.3164C110.926 18.1523 110.562 17.9766 110.164 17.7891C109.766 17.5781 109.391 17.4023 109.039 17.2617C108.711 17.0977 108.547 17.0039 108.547 16.9805C108.031 17.5195 107.668 18.0938 107.457 18.7031C107.27 19.3125 107.07 19.9453 106.859 20.6016C106.672 21.2578 106.379 21.9141 105.98 22.5703C105.605 23.2266 104.961 23.8711 104.047 24.5039C104.023 24.5039 103.977 24.4922 103.906 24.4688C103.812 24.4453 103.73 24.3867 103.66 24.293C103.566 24.1758 103.496 24.0117 103.449 23.8008C103.402 23.5664 103.391 23.2383 103.414 22.8164ZM137.727 45.5273C137.75 45.3867 137.797 45.1523 137.867 44.8242C137.938 44.4961 138.02 44.1562 138.113 43.8047C138.207 43.4531 138.301 43.1133 138.395 42.7852C138.488 42.457 138.559 42.2227 138.605 42.082C139.168 40.7695 139.859 39.5156 140.68 38.3203C141.523 37.125 142.426 35.9766 143.387 34.875C144.371 33.7969 145.402 32.7656 146.48 31.7812C147.582 30.7969 148.672 29.8359 149.75 28.8984C150.008 28.7578 150.383 28.5117 150.875 28.1602C151.367 27.832 151.836 27.457 152.281 27.0352C152.75 26.6367 153.148 26.2383 153.477 25.8398C153.828 25.4414 154.004 25.1133 154.004 24.8555C154.004 24.293 153.945 23.7539 153.828 23.2383C153.734 22.7227 153.559 22.2656 153.301 21.8672C153.066 21.4453 152.738 21.1172 152.316 20.8828C151.918 20.625 151.414 20.4961 150.805 20.4961C149.984 20.4961 149.164 20.6016 148.344 20.8125C147.547 21 146.762 21.2695 145.988 21.6211C145.238 21.9492 144.512 22.3477 143.809 22.8164C143.105 23.2852 142.449 23.7773 141.84 24.293C141.793 24.293 141.723 24.3047 141.629 24.3281C141.535 24.3281 141.465 24.3281 141.418 24.3281C141.207 24.3281 140.996 24.2695 140.785 24.1523C140.574 24.0352 140.469 23.8477 140.469 23.5898C140.469 23.543 140.492 23.4609 140.539 23.3438C140.586 23.2031 140.609 23.1094 140.609 23.0625L147.289 11.9531C147.852 11.0625 148.191 10.207 148.309 9.38672C148.449 8.56641 148.52 7.65234 148.52 6.64453C147.816 6.64453 147.02 6.79688 146.129 7.10156C145.262 7.40625 144.395 7.79297 143.527 8.26172C142.684 8.73047 141.875 9.25781 141.102 9.84375C140.352 10.4297 139.742 11.0156 139.273 11.6016C139.133 11.7422 139.039 11.9297 138.992 12.1641C138.945 12.3984 138.887 12.6328 138.816 12.8672C138.746 13.0781 138.652 13.2656 138.535 13.4297C138.441 13.5703 138.277 13.6406 138.043 13.6406C137.855 13.6406 137.703 13.582 137.586 13.4648C137.469 13.3242 137.363 13.1719 137.27 13.0078C137.176 12.8203 137.105 12.6328 137.059 12.4453C137.012 12.2578 136.988 12.1055 136.988 11.9883C136.988 11.5195 137.105 11.1211 137.34 10.793C137.598 10.4648 137.891 10.1484 138.219 9.84375C138.875 9.375 139.625 8.84766 140.469 8.26172C141.312 7.65234 142.191 7.08984 143.105 6.57422C144.02 6.03516 144.945 5.58984 145.883 5.23828C146.844 4.88672 147.781 4.71094 148.695 4.71094C149.445 4.71094 149.973 4.875 150.277 5.20312C150.605 5.50781 150.77 6.05859 150.77 6.85547C150.77 7.27734 150.758 7.67578 150.734 8.05078C150.711 8.40234 150.605 8.77734 150.418 9.17578L146.445 17.4023C146.398 17.4961 146.305 17.6484 146.164 17.8594C146.047 18.0703 145.918 18.293 145.777 18.5273C145.637 18.7617 145.496 18.9961 145.355 19.2305C145.238 19.4414 145.145 19.582 145.074 19.6523C145.051 19.6758 145.016 19.7344 144.969 19.8281C144.945 19.8984 144.922 19.9453 144.898 19.9688C144.922 19.9688 144.945 19.9805 144.969 20.0039C145.016 20.0039 145.051 20.0039 145.074 20.0039C145.285 20.0039 145.473 19.9453 145.637 19.8281C146.645 19.5234 147.594 19.2539 148.484 19.0195C149.398 18.7617 150.371 18.6328 151.402 18.6328C152.41 18.6328 153.148 18.7852 153.617 19.0898C154.109 19.3945 154.484 19.7812 154.742 20.25C155 20.7188 155.211 21.2578 155.375 21.8672C155.562 22.4531 155.855 23.0273 156.254 23.5898L162.934 18.3164L163.074 18.0703C163.121 18.3047 163.25 18.4336 163.461 18.457C163.672 18.4805 163.859 18.5039 164.023 18.5273C164.188 18.5508 164.258 18.6211 164.234 18.7383C164.211 18.8555 163.965 19.1367 163.496 19.582C163.027 20.0039 162.289 20.6367 161.281 21.4805C160.273 22.3242 158.867 23.4844 157.062 24.9609L156.254 25.8047C156.371 28.6172 156.195 31.2422 155.727 33.6797C155.281 36.1172 154.508 38.3555 153.406 40.3945C152.328 42.4336 150.898 44.2734 149.117 45.9141C147.359 47.5547 145.227 48.9727 142.719 50.168C142.648 50.168 142.543 50.1797 142.402 50.2031C142.262 50.2266 142.109 50.2383 141.945 50.2383C141.781 50.2617 141.617 50.2734 141.453 50.2734C141.312 50.2969 141.219 50.3086 141.172 50.3086C140.609 50.3086 140.105 50.1797 139.66 49.9219C139.238 49.6875 138.875 49.3711 138.57 48.9727C138.289 48.5742 138.078 48.1289 137.938 47.6367C137.797 47.1445 137.727 46.6523 137.727 46.1602V45.5273ZM139.801 47.0742C139.871 47.3086 139.965 47.5312 140.082 47.7422C140.223 47.9531 140.398 48.1406 140.609 48.3047H141.418C141.91 48.3047 142.402 48.2227 142.895 48.0586C143.387 47.918 143.867 47.7188 144.336 47.4609C144.805 47.2266 145.25 46.9453 145.672 46.6172C146.094 46.3125 146.48 46.0078 146.832 45.7031C148.191 44.3672 149.34 43.0664 150.277 41.8008C151.215 40.5586 151.977 39.2578 152.562 37.8984C153.148 36.5391 153.57 35.0859 153.828 33.5391C154.086 31.9922 154.215 30.2461 154.215 28.3008C154.215 28.2305 154.203 28.0664 154.18 27.8086C154.18 27.5742 154.18 27.4219 154.18 27.3516C150.148 30.3984 146.48 33.8906 143.176 37.8281C142.73 38.3906 142.297 38.9766 141.875 39.5859C141.477 40.2188 141.113 40.8633 140.785 41.5195C140.48 42.1992 140.234 42.8906 140.047 43.5938C139.859 44.3203 139.766 45.0586 139.766 45.8086C139.766 45.9023 139.766 46.1133 139.766 46.4414C139.789 46.7695 139.801 46.9805 139.801 47.0742ZM170.035 19.0898C169.988 18.9961 169.906 18.8672 169.789 18.7031C169.695 18.5156 169.578 18.4219 169.438 18.4219C168.992 18.4219 168.535 18.6211 168.066 19.0195C167.621 19.3945 167.188 19.8516 166.766 20.3906C166.367 20.9062 166.016 21.4336 165.711 21.9727C165.43 22.5117 165.254 22.9336 165.184 23.2383C165.09 23.543 165.043 23.9062 165.043 24.3281C165.043 24.75 165.008 25.1484 164.938 25.5234C164.891 25.8984 164.762 26.2148 164.551 26.4727C164.363 26.7305 164.023 26.8594 163.531 26.8594C163.227 26.8594 163.016 26.8008 162.898 26.6836C162.805 26.543 162.758 26.3203 162.758 26.0156C162.922 24.8906 163.062 23.9648 163.18 23.2383C163.32 22.5117 163.438 21.8789 163.531 21.3398C163.648 20.7773 163.754 20.2383 163.848 19.7227C163.965 19.1836 164.094 18.5391 164.234 17.7891C164.375 17.0391 164.527 16.125 164.691 15.0469C164.855 13.9453 165.055 12.5508 165.289 10.8633C165.289 10.5117 165.312 10.0195 165.359 9.38672C165.406 8.73047 165.488 8.03906 165.605 7.3125C165.746 6.5625 165.922 5.8125 166.133 5.0625C166.344 4.28906 166.602 3.59766 166.906 2.98828C167.234 2.37891 167.609 1.88672 168.031 1.51172C168.453 1.11328 168.945 0.914062 169.508 0.914062C169.906 0.914062 170.223 1.05469 170.457 1.33594C170.715 1.59375 170.902 1.91016 171.02 2.28516C171.16 2.66016 171.242 3.05859 171.266 3.48047C171.289 3.87891 171.301 4.20703 171.301 4.46484C171.301 5.05078 171.254 5.61328 171.16 6.15234C171.066 6.66797 170.949 7.19531 170.809 7.73438C170.668 8.25 170.516 8.77734 170.352 9.31641C170.188 9.83203 170.047 10.3477 169.93 10.8633L167.68 15.1523L166.414 17.8945L166.59 18.2812C167.082 17.6953 167.586 17.25 168.102 16.9453C168.617 16.6172 169.262 16.4297 170.035 16.3828C170.387 16.3594 170.68 16.4648 170.914 16.6992C171.172 16.9336 171.383 17.2383 171.547 17.6133C171.711 17.9648 171.828 18.3281 171.898 18.7031C171.992 19.0781 172.051 19.3828 172.074 19.6172C172.074 19.7578 172.062 19.9805 172.039 20.2852C172.016 20.5898 171.992 20.9414 171.969 21.3398C171.945 21.7383 171.922 22.1602 171.898 22.6055C171.898 23.0273 171.922 23.4258 171.969 23.8008C172.016 24.1758 172.109 24.5039 172.25 24.7852C172.414 25.043 172.625 25.1953 172.883 25.2422C173.797 25.125 174.605 24.9727 175.309 24.7852C176.035 24.5742 176.668 24.293 177.207 23.9414C177.746 23.5664 178.191 23.0977 178.543 22.5352C178.918 21.9727 179.199 21.2812 179.387 20.4609C179.551 20.2266 179.785 20.1094 180.09 20.1094C180.441 20.1094 180.664 20.2383 180.758 20.4961C180.875 20.7539 180.934 21.0352 180.934 21.3398C180.934 22.2773 180.629 23.1094 180.02 23.8359C179.434 24.5391 178.684 25.125 177.77 25.5938C176.855 26.0625 175.871 26.4258 174.816 26.6836C173.762 26.918 172.789 27.0352 171.898 27.0352C171.336 27.0352 170.949 26.8477 170.738 26.4727C170.527 26.0742 170.398 25.6055 170.352 25.0664C170.328 24.5039 170.328 23.9414 170.352 23.3789C170.375 22.8164 170.375 22.3594 170.352 22.0078C170.352 21.8906 170.34 21.7031 170.316 21.4453C170.293 21.1641 170.258 20.8711 170.211 20.5664C170.188 20.2617 170.152 19.9688 170.105 19.6875C170.059 19.4062 170.035 19.207 170.035 19.0898ZM167.152 10.6523C167.152 10.7227 167.152 10.8398 167.152 11.0039C167.152 11.168 167.152 11.3203 167.152 11.4609C167.176 11.6016 167.188 11.7305 167.188 11.8477C167.188 11.9648 167.188 12.0352 167.188 12.0586L167.363 12.2344C167.598 12.0938 167.809 11.8477 167.996 11.4961C168.207 11.1445 168.395 10.7227 168.559 10.2305C168.723 9.73828 168.863 9.22266 168.98 8.68359C169.121 8.12109 169.238 7.57031 169.332 7.03125C169.426 6.49219 169.496 6 169.543 5.55469C169.613 5.10938 169.648 4.74609 169.648 4.46484C169.648 4.37109 169.637 4.19531 169.613 3.9375C169.613 3.67969 169.602 3.52734 169.578 3.48047L169.402 3.12891C168.84 3.57422 168.406 4.10156 168.102 4.71094C167.797 5.32031 167.574 5.95312 167.434 6.60938C167.293 7.26562 167.211 7.94531 167.188 8.64844C167.164 9.35156 167.152 10.0195 167.152 10.6523ZM180.477 25.9453C180.477 25.875 180.477 25.6992 180.477 25.418C180.477 25.1367 180.477 24.9492 180.477 24.8555C180.078 23.4492 180.02 22.0664 180.301 20.707C180.605 19.3477 181.133 18.1289 181.883 17.0508C182.656 15.9492 183.629 15.0352 184.801 14.3086C185.996 13.5586 187.297 13.1016 188.703 12.9375H189.336C189.852 12.9375 190.273 13.0547 190.602 13.2891C190.953 13.5 191.223 13.7812 191.41 14.1328C191.621 14.4844 191.762 14.8828 191.832 15.3281C191.926 15.7734 191.973 16.2188 191.973 16.6641C191.973 17.2734 191.902 17.8711 191.762 18.457C191.645 19.0195 191.504 19.5938 191.34 20.1797C191.199 20.7656 191.059 21.3516 190.918 21.9375C190.801 22.5 190.742 23.0977 190.742 23.7305V23.9414C190.766 23.9883 190.789 24.1289 190.812 24.3633C190.859 24.5742 190.895 24.7031 190.918 24.75C190.965 24.75 191.082 24.7617 191.27 24.7852C191.457 24.7852 191.574 24.7852 191.621 24.7852C191.855 24.7852 192.078 24.7852 192.289 24.7852C192.523 24.7617 192.758 24.7031 192.992 24.6094L199.672 21.5156C199.695 21.5156 199.73 21.5156 199.777 21.5156C199.848 21.4922 199.895 21.4805 199.918 21.4805C200.152 21.4805 200.34 21.5508 200.48 21.6914C200.645 21.832 200.727 22.0195 200.727 22.2539C200.727 22.3711 200.715 22.4883 200.691 22.6055C200.691 22.6992 200.633 22.793 200.516 22.8867C200.352 23.0039 200.047 23.168 199.602 23.3789C199.18 23.5898 198.723 23.8242 198.23 24.082C197.738 24.3398 197.27 24.5859 196.824 24.8203C196.402 25.0547 196.098 25.207 195.91 25.2773C195.582 25.4648 195.219 25.6406 194.82 25.8047C194.422 25.9453 194.012 26.0859 193.59 26.2266C193.168 26.3672 192.746 26.4844 192.324 26.5781C191.926 26.6484 191.562 26.6836 191.234 26.6836C190.719 26.6836 190.297 26.6016 189.969 26.4375C189.641 26.25 189.395 26.0156 189.23 25.7344C189.066 25.4297 188.949 25.0781 188.879 24.6797C188.832 24.2578 188.832 23.8242 188.879 23.3789C188.41 23.7539 187.906 24.1523 187.367 24.5742C186.828 24.9961 186.266 25.3828 185.68 25.7344C185.094 26.0859 184.496 26.3906 183.887 26.6484C183.277 26.9062 182.656 27.0352 182.023 27.0352C181.672 27.0352 181.355 26.9531 181.074 26.7891C180.793 26.6016 180.594 26.3203 180.477 25.9453ZM182.375 25.207C182.914 25.207 183.512 25.0547 184.168 24.75C184.824 24.4219 185.469 24.0234 186.102 23.5547C186.734 23.0859 187.309 22.5938 187.824 22.0781C188.34 21.5391 188.738 21.0586 189.02 20.6367C189.043 19.9336 189.137 19.2656 189.301 18.6328C189.488 17.9766 189.582 17.3086 189.582 16.6289C189.582 16.582 189.57 16.5117 189.547 16.418C189.547 16.3242 189.547 16.2539 189.547 16.207C189.242 15.9492 188.984 15.7969 188.773 15.75C188.562 15.7031 188.281 15.6797 187.93 15.6797C187.883 15.6797 187.777 15.6797 187.613 15.6797C187.473 15.6797 187.379 15.6914 187.332 15.7148C187.191 15.832 186.957 16.0547 186.629 16.3828C186.301 16.6875 185.949 17.0273 185.574 17.4023C185.223 17.7773 184.883 18.1289 184.555 18.457C184.25 18.7852 184.039 19.0078 183.922 19.125C183.898 19.125 183.852 19.1719 183.781 19.2656C183.711 19.3359 183.629 19.4297 183.535 19.5469C183.465 19.6641 183.395 19.7812 183.324 19.8984C183.277 19.9922 183.242 20.0742 183.219 20.1445L182.375 24.2578V25.207ZM199.18 26.2969L200.375 19.2656V18.2812L201.078 13.6055C201.148 13.5117 201.277 13.4648 201.465 13.4648C201.652 13.4414 201.781 13.4297 201.852 13.4297C202.039 13.4297 202.25 13.5 202.484 13.6406C202.742 13.7578 202.871 13.9219 202.871 14.1328V16.5234C202.965 16.4531 203.129 16.3125 203.363 16.1016C203.598 15.8906 203.844 15.668 204.102 15.4336C204.383 15.1992 204.641 14.9766 204.875 14.7656C205.109 14.5547 205.262 14.4023 205.332 14.3086C205.59 14.0742 205.895 13.875 206.246 13.7109C206.621 13.5469 206.973 13.4648 207.301 13.4648C207.98 13.4648 208.508 13.6758 208.883 14.0977C209.281 14.5195 209.48 15.0586 209.48 15.7148C209.48 15.7617 209.469 15.7969 209.445 15.8203C209.445 15.8203 209.445 15.8438 209.445 15.8906V16.0312L208.109 22.043V24.8906C208.836 24.8906 209.586 24.75 210.359 24.4688C211.156 24.1641 211.918 23.7891 212.645 23.3438C213.371 22.8984 214.051 22.3945 214.684 21.832C215.316 21.2461 215.867 20.6836 216.336 20.1445H216.477C216.641 20.1445 216.77 20.2031 216.863 20.3203C216.98 20.4141 217.039 20.543 217.039 20.707C217.039 21.2227 216.863 21.7383 216.512 22.2539C216.184 22.7461 215.75 23.2148 215.211 23.6602C214.695 24.1055 214.086 24.5273 213.383 24.9258C212.703 25.3242 212.023 25.6641 211.344 25.9453C210.688 26.2266 210.043 26.4492 209.41 26.6133C208.777 26.7773 208.238 26.8594 207.793 26.8594C207.348 26.8594 206.996 26.7773 206.738 26.6133C206.48 26.4492 206.281 26.2383 206.141 25.9805C206.023 25.6992 205.941 25.3945 205.895 25.0664C205.871 24.7383 205.859 24.3867 205.859 24.0117V23.5547L207.23 16.7344V15.5742C206.668 15.5742 206.105 15.8203 205.543 16.3125C205.004 16.8047 204.512 17.4023 204.066 18.1055C203.645 18.8086 203.27 19.5234 202.941 20.25C202.637 20.9766 202.414 21.5742 202.273 22.043C202.227 22.207 202.156 22.5 202.062 22.9219C201.969 23.3438 201.875 23.7891 201.781 24.2578C201.711 24.7266 201.641 25.1719 201.57 25.5938C201.5 26.0156 201.453 26.3203 201.43 26.5078C201.453 26.6484 201.406 26.7539 201.289 26.8242C201.195 26.8945 201.078 26.9531 200.938 27C200.797 27.0234 200.645 27.0352 200.48 27.0352C200.34 27.0352 200.223 27.0352 200.129 27.0352C199.918 27.0352 199.707 27 199.496 26.9297C199.285 26.8594 199.18 26.6836 199.18 26.4023V26.2969ZM218.164 44.1562C218.047 43.8047 217.941 43.4766 217.848 43.1719C217.777 42.8672 217.73 42.5742 217.707 42.293C217.684 42.0352 217.66 41.7656 217.637 41.4844C217.637 41.2266 217.637 40.9102 217.637 40.5352C217.637 40.4883 217.637 40.3945 217.637 40.2539C217.637 40.1367 217.637 39.9961 217.637 39.832C217.637 39.6914 217.637 39.5508 217.637 39.4102C217.66 39.293 217.672 39.2109 217.672 39.1641C217.93 38.0156 218.211 36.8789 218.516 35.7539C218.844 34.6523 219.23 33.5742 219.676 32.5195C220.121 31.4883 220.66 30.5039 221.293 29.5664C221.926 28.6523 222.711 27.7969 223.648 27C223.672 26.8828 223.707 26.6484 223.754 26.2969C223.801 25.9453 223.859 25.582 223.93 25.207C224 24.832 224.047 24.4805 224.07 24.1523C224.117 23.8008 224.152 23.543 224.176 23.3789C224.176 23.332 224.164 23.2266 224.141 23.0625C224.141 22.875 224.141 22.7578 224.141 22.7109H224.035C223.215 23.1328 222.43 23.5078 221.68 23.8359C220.93 24.1406 220.109 24.293 219.219 24.293C218.727 24.293 218.305 24.2109 217.953 24.0469C217.625 23.8828 217.355 23.6602 217.145 23.3789C216.934 23.0977 216.77 22.7695 216.652 22.3945C216.559 22.0195 216.5 21.6094 216.477 21.1641L217.32 18.5977C217.531 18.0117 217.789 17.3906 218.094 16.7344C218.422 16.0547 218.785 15.4102 219.184 14.8008C219.605 14.1914 220.086 13.6406 220.625 13.1484C221.164 12.6328 221.773 12.2695 222.453 12.0586C223.367 11.918 224.211 11.9414 224.984 12.1289C225.781 12.3164 226.473 12.5859 227.059 12.9375C227.645 13.2891 228.113 13.6758 228.465 14.0977C228.84 14.4961 229.062 14.8477 229.133 15.1523C229.086 15.5039 228.98 15.8789 228.816 16.2773C228.652 16.6523 228.465 17.0391 228.254 17.4375C228.066 17.8125 227.867 18.1641 227.656 18.4922C227.469 18.7969 227.328 19.0547 227.234 19.2656C227.047 19.6875 226.883 20.1328 226.742 20.6016C226.602 21.0703 226.473 21.5508 226.355 22.043C226.262 22.5352 226.18 23.0391 226.109 23.5547C226.062 24.0469 226.039 24.5039 226.039 24.9258V25.4531C227.234 24.75 228.523 24.1992 229.906 23.8008C231.289 23.4023 232.66 23.2031 234.02 23.2031C234.184 23.2031 234.395 23.2031 234.652 23.2031C234.934 23.2031 235.191 23.2383 235.426 23.3086C235.684 23.3555 235.906 23.4609 236.094 23.625C236.281 23.7656 236.375 23.9766 236.375 24.2578C236.375 24.7031 236.129 24.9258 235.637 24.9258C235.566 24.9258 235.402 24.9141 235.145 24.8906C234.887 24.8438 234.711 24.7969 234.617 24.75C234.453 24.7734 234.172 24.8203 233.773 24.8906C233.375 24.9609 232.941 25.043 232.473 25.1367C232.004 25.2305 231.57 25.3242 231.172 25.418C230.773 25.5117 230.492 25.5703 230.328 25.5938C230.258 25.6172 230.117 25.6758 229.906 25.7695C229.719 25.8398 229.508 25.9219 229.273 26.0156C229.039 26.1094 228.805 26.2031 228.57 26.2969C228.359 26.3672 228.219 26.4375 228.148 26.5078C227.961 26.5547 227.738 26.6484 227.48 26.7891C227.246 26.9062 227.012 27.0234 226.777 27.1406C226.543 27.2812 226.332 27.3984 226.145 27.4922C225.98 27.6094 225.898 27.6797 225.898 27.7031L225.547 28.1953L224.703 37.0898C224.633 37.6992 224.457 38.4375 224.176 39.3047C223.918 40.1719 223.566 41.0039 223.121 41.8008C222.676 42.5977 222.125 43.2656 221.469 43.8047C220.836 44.3672 220.109 44.6484 219.289 44.6484C219.055 44.6484 218.844 44.6133 218.656 44.543C218.492 44.4961 218.328 44.3672 218.164 44.1562ZM219.359 40.7109C219.383 40.9219 219.406 41.2266 219.43 41.625C219.477 42.0234 219.559 42.3516 219.676 42.6094C220.121 42.4922 220.531 42.1641 220.906 41.625C221.281 41.1094 221.598 40.5234 221.855 39.8672C222.113 39.2109 222.324 38.5547 222.488 37.8984C222.652 37.2656 222.758 36.7734 222.805 36.4219C222.898 35.8828 222.969 35.3672 223.016 34.875C223.086 34.4062 223.145 33.9492 223.191 33.5039C223.238 33.082 223.273 32.6602 223.297 32.2383C223.32 31.8164 223.332 31.3594 223.332 30.8672C223.332 30.7969 223.32 30.6328 223.297 30.375C223.297 30.1406 223.297 29.9883 223.297 29.918C222.664 30.7383 222.137 31.5703 221.715 32.4141C221.293 33.2578 220.93 34.1133 220.625 34.9805C220.344 35.8711 220.098 36.7852 219.887 37.7227C219.699 38.6836 219.523 39.6797 219.359 40.7109ZM218.516 21.832C218.586 22.0195 218.68 22.1836 218.797 22.3242C218.938 22.4648 219.125 22.5352 219.359 22.5352C220.32 22.5352 221.176 22.3359 221.926 21.9375C222.699 21.5156 223.379 20.9766 223.965 20.3203C224.551 19.6641 225.055 18.9492 225.477 18.1758C225.922 17.4023 226.297 16.6289 226.602 15.8555V15.7148C226.227 14.9414 225.793 14.4492 225.301 14.2383C224.832 14.0039 224.328 13.9688 223.789 14.1328C223.273 14.2734 222.746 14.5781 222.207 15.0469C221.668 15.4922 221.152 16.0078 220.66 16.5938C220.191 17.1562 219.77 17.7539 219.395 18.3867C219.02 19.0195 218.727 19.6055 218.516 20.1445C218.305 20.6602 218.188 21.082 218.164 21.4102C218.141 21.7383 218.258 21.8789 218.516 21.832Z" fill="black"/>
</svg>
